<mxfile host="app.diagrams.net" modified="2023-10-22T09:12:57.173Z" agent="Mozilla/5.0 (X11; Linux x86_64) AppleWebKit/537.36 (KHTML, like Gecko) Chrome/117.0.0.0 Safari/537.36" etag="r3fbyy7fzoAE7KqWpsxN" version="22.0.6" type="github">
  <diagram name="Page-1" id="74e2e168-ea6b-b213-b513-2b3c1d86103e">
    <mxGraphModel dx="1221" dy="676" grid="1" gridSize="10" guides="1" tooltips="1" connect="1" arrows="1" fold="1" page="1" pageScale="1" pageWidth="1100" pageHeight="850" background="none" math="0" shadow="0">
      <root>
        <mxCell id="0" />
        <mxCell id="1" parent="0" />
        <mxCell id="I2zOUol5_NyOb8Kr1234-2" value="" style="endArrow=none;html=1;rounded=0;entryX=0.5;entryY=1;entryDx=0;entryDy=0;" edge="1" parent="1" source="I2zOUol5_NyOb8Kr1234-7">
          <mxGeometry width="50" height="50" relative="1" as="geometry">
            <mxPoint x="250" y="360" as="sourcePoint" />
            <mxPoint x="250" y="300" as="targetPoint" />
          </mxGeometry>
        </mxCell>
        <mxCell id="I2zOUol5_NyOb8Kr1234-3" value="Начало" style="rounded=1;whiteSpace=wrap;html=1;" vertex="1" parent="1">
          <mxGeometry x="190" y="160" width="120" height="60" as="geometry" />
        </mxCell>
        <mxCell id="I2zOUol5_NyOb8Kr1234-4" value="" style="endArrow=none;html=1;rounded=0;" edge="1" parent="1">
          <mxGeometry width="50" height="50" relative="1" as="geometry">
            <mxPoint x="250" y="300" as="sourcePoint" />
            <mxPoint x="250" y="290.71067811865476" as="targetPoint" />
          </mxGeometry>
        </mxCell>
        <mxCell id="I2zOUol5_NyOb8Kr1234-5" value="" style="endArrow=none;html=1;rounded=0;" edge="1" parent="1" source="I2zOUol5_NyOb8Kr1234-7">
          <mxGeometry width="50" height="50" relative="1" as="geometry">
            <mxPoint x="250" y="220" as="sourcePoint" />
            <mxPoint x="250" y="240" as="targetPoint" />
          </mxGeometry>
        </mxCell>
        <mxCell id="I2zOUol5_NyOb8Kr1234-6" value="" style="endArrow=none;html=1;rounded=0;" edge="1" parent="1" source="I2zOUol5_NyOb8Kr1234-3" target="I2zOUol5_NyOb8Kr1234-7">
          <mxGeometry width="50" height="50" relative="1" as="geometry">
            <mxPoint x="250" y="220" as="sourcePoint" />
            <mxPoint x="250" y="240" as="targetPoint" />
          </mxGeometry>
        </mxCell>
        <mxCell id="I2zOUol5_NyOb8Kr1234-8" value="" style="endArrow=none;html=1;rounded=0;entryX=0.5;entryY=1;entryDx=0;entryDy=0;" edge="1" parent="1" source="I2zOUol5_NyOb8Kr1234-11" target="I2zOUol5_NyOb8Kr1234-7">
          <mxGeometry width="50" height="50" relative="1" as="geometry">
            <mxPoint x="250" y="360" as="sourcePoint" />
            <mxPoint x="250" y="300" as="targetPoint" />
          </mxGeometry>
        </mxCell>
        <mxCell id="I2zOUol5_NyOb8Kr1234-7" value="temp" style="shape=parallelogram;perimeter=parallelogramPerimeter;whiteSpace=wrap;html=1;fixedSize=1;" vertex="1" parent="1">
          <mxGeometry x="190" y="260" width="120" height="60" as="geometry" />
        </mxCell>
        <mxCell id="I2zOUol5_NyOb8Kr1234-10" value="" style="endArrow=none;html=1;rounded=0;entryX=0.5;entryY=1;entryDx=0;entryDy=0;" edge="1" parent="1" target="I2zOUol5_NyOb8Kr1234-11">
          <mxGeometry width="50" height="50" relative="1" as="geometry">
            <mxPoint x="250" y="360" as="sourcePoint" />
            <mxPoint x="250" y="320" as="targetPoint" />
          </mxGeometry>
        </mxCell>
        <mxCell id="I2zOUol5_NyOb8Kr1234-11" value="&lt;h6&gt;r = len(list(filter(lambda x: x[-1] == &#39;f&#39;, temp)))&lt;/h6&gt;" style="shape=process;whiteSpace=wrap;html=1;backgroundOutline=1;" vertex="1" parent="1">
          <mxGeometry x="190" y="350" width="120" height="60" as="geometry" />
        </mxCell>
        <mxCell id="I2zOUol5_NyOb8Kr1234-12" value="" style="endArrow=none;html=1;rounded=0;exitX=0.5;exitY=1;exitDx=0;exitDy=0;" edge="1" parent="1" target="I2zOUol5_NyOb8Kr1234-13" source="I2zOUol5_NyOb8Kr1234-11">
          <mxGeometry width="50" height="50" relative="1" as="geometry">
            <mxPoint x="249.77" y="410" as="sourcePoint" />
            <mxPoint x="249.77" y="450" as="targetPoint" />
            <Array as="points" />
          </mxGeometry>
        </mxCell>
        <mxCell id="I2zOUol5_NyOb8Kr1234-13" value="r" style="shape=parallelogram;perimeter=parallelogramPerimeter;whiteSpace=wrap;html=1;fixedSize=1;" vertex="1" parent="1">
          <mxGeometry x="190" y="450" width="120" height="60" as="geometry" />
        </mxCell>
        <mxCell id="I2zOUol5_NyOb8Kr1234-14" value="" style="endArrow=none;html=1;rounded=0;" edge="1" parent="1" source="I2zOUol5_NyOb8Kr1234-16">
          <mxGeometry width="50" height="50" relative="1" as="geometry">
            <mxPoint x="250" y="560" as="sourcePoint" />
            <mxPoint x="250" y="580.7106781186548" as="targetPoint" />
          </mxGeometry>
        </mxCell>
        <mxCell id="I2zOUol5_NyOb8Kr1234-15" value="" style="endArrow=none;html=1;rounded=0;" edge="1" parent="1" source="I2zOUol5_NyOb8Kr1234-13" target="I2zOUol5_NyOb8Kr1234-16">
          <mxGeometry width="50" height="50" relative="1" as="geometry">
            <mxPoint x="250" y="510" as="sourcePoint" />
            <mxPoint x="250" y="580.7106781186548" as="targetPoint" />
          </mxGeometry>
        </mxCell>
        <mxCell id="I2zOUol5_NyOb8Kr1234-16" value="Конец" style="rounded=1;whiteSpace=wrap;html=1;" vertex="1" parent="1">
          <mxGeometry x="190" y="550" width="120" height="60" as="geometry" />
        </mxCell>
      </root>
    </mxGraphModel>
  </diagram>
</mxfile>
